<mxfile>
    <diagram id="A5J7CPd6tFAUjTUjzoOd" name="Page-1">
        <mxGraphModel dx="749" dy="575" grid="1" gridSize="10" guides="1" tooltips="1" connect="1" arrows="1" fold="1" page="1" pageScale="1" pageWidth="827" pageHeight="1169" math="0" shadow="0">
            <root>
                <mxCell id="0"/>
                <mxCell id="1" parent="0"/>
                <mxCell id="phBigF0GXQfGeEcBGrCL-1" value="我的界面" style="shape=umlLifeline;perimeter=lifelinePerimeter;container=1;collapsible=0;recursiveResize=0;rounded=0;shadow=0;strokeWidth=1;" parent="1" vertex="1">
                    <mxGeometry x="310" y="90" width="100" height="290" as="geometry"/>
                </mxCell>
                <mxCell id="phBigF0GXQfGeEcBGrCL-2" value="" style="points=[];perimeter=orthogonalPerimeter;rounded=0;shadow=0;strokeWidth=1;" parent="phBigF0GXQfGeEcBGrCL-1" vertex="1">
                    <mxGeometry x="45" y="80" width="10" height="160" as="geometry"/>
                </mxCell>
                <mxCell id="phBigF0GXQfGeEcBGrCL-3" value="服务器" style="shape=umlLifeline;perimeter=lifelinePerimeter;container=1;collapsible=0;recursiveResize=0;rounded=0;shadow=0;strokeWidth=1;" parent="1" vertex="1">
                    <mxGeometry x="550" y="80" width="100" height="300" as="geometry"/>
                </mxCell>
                <mxCell id="phBigF0GXQfGeEcBGrCL-4" value="" style="points=[];perimeter=orthogonalPerimeter;rounded=0;shadow=0;strokeWidth=1;" parent="phBigF0GXQfGeEcBGrCL-3" vertex="1">
                    <mxGeometry x="45" y="170" width="10" height="40" as="geometry"/>
                </mxCell>
                <mxCell id="phBigF0GXQfGeEcBGrCL-5" value="用户" style="shape=umlActor;verticalLabelPosition=bottom;verticalAlign=top;html=1;outlineConnect=0;fontStyle=0;fontFamily=Helvetica;" parent="1" vertex="1">
                    <mxGeometry x="170" y="70" width="30" height="60" as="geometry"/>
                </mxCell>
                <mxCell id="phBigF0GXQfGeEcBGrCL-6" value="" style="endArrow=none;dashed=1;html=1;fontFamily=Helvetica;" parent="1" target="phBigF0GXQfGeEcBGrCL-5" edge="1">
                    <mxGeometry width="50" height="50" relative="1" as="geometry">
                        <mxPoint x="185" y="380" as="sourcePoint"/>
                        <mxPoint x="184.5" y="160" as="targetPoint"/>
                    </mxGeometry>
                </mxCell>
                <mxCell id="phBigF0GXQfGeEcBGrCL-7" value="" style="html=1;points=[];perimeter=orthogonalPerimeter;fontFamily=Helvetica;" parent="1" vertex="1">
                    <mxGeometry x="180" y="170" width="10" height="160" as="geometry"/>
                </mxCell>
                <mxCell id="phBigF0GXQfGeEcBGrCL-8" value="点击我的关注按钮" style="verticalAlign=bottom;endArrow=block;shadow=0;strokeWidth=1;entryX=-0.22;entryY=0.009;entryDx=0;entryDy=0;entryPerimeter=0;exitX=1.08;exitY=0.015;exitDx=0;exitDy=0;exitPerimeter=0;" parent="1" source="phBigF0GXQfGeEcBGrCL-7" target="phBigF0GXQfGeEcBGrCL-2" edge="1">
                    <mxGeometry relative="1" as="geometry">
                        <mxPoint x="200" y="172" as="sourcePoint"/>
                        <mxPoint x="340" y="200" as="targetPoint"/>
                        <Array as="points"/>
                    </mxGeometry>
                </mxCell>
                <mxCell id="phBigF0GXQfGeEcBGrCL-9" value="显示关注列表信息" style="html=1;verticalAlign=bottom;endArrow=open;dashed=1;endSize=8;fontFamily=Helvetica;" parent="1" edge="1">
                    <mxGeometry x="0.025" relative="1" as="geometry">
                        <mxPoint x="350" y="330" as="sourcePoint"/>
                        <mxPoint x="190" y="330" as="targetPoint"/>
                        <Array as="points">
                            <mxPoint x="268" y="330"/>
                        </Array>
                        <mxPoint as="offset"/>
                    </mxGeometry>
                </mxCell>
                <mxCell id="phBigF0GXQfGeEcBGrCL-10" value="关注列表" style="html=1;verticalAlign=bottom;endArrow=open;dashed=1;endSize=8;fontFamily=Helvetica;" parent="1" edge="1">
                    <mxGeometry x="0.3333" relative="1" as="geometry">
                        <mxPoint x="470" y="285" as="sourcePoint"/>
                        <mxPoint x="370" y="284.5" as="targetPoint"/>
                        <Array as="points">
                            <mxPoint x="600" y="285"/>
                        </Array>
                        <mxPoint as="offset"/>
                    </mxGeometry>
                </mxCell>
                <mxCell id="phBigF0GXQfGeEcBGrCL-11" value="" style="curved=1;endArrow=classic;html=1;" parent="1" edge="1">
                    <mxGeometry width="50" height="50" relative="1" as="geometry">
                        <mxPoint x="370" y="190" as="sourcePoint"/>
                        <mxPoint x="370" y="217" as="targetPoint"/>
                        <Array as="points">
                            <mxPoint x="372" y="190"/>
                            <mxPoint x="392" y="190"/>
                            <mxPoint x="392" y="217"/>
                            <mxPoint x="372" y="217"/>
                        </Array>
                    </mxGeometry>
                </mxCell>
                <mxCell id="phBigF0GXQfGeEcBGrCL-12" value="检查是否已登录" style="text;html=1;strokeColor=none;fillColor=none;align=center;verticalAlign=middle;whiteSpace=wrap;rounded=0;" parent="1" vertex="1">
                    <mxGeometry x="394" y="200" width="40" height="20" as="geometry"/>
                </mxCell>
                <mxCell id="phBigF0GXQfGeEcBGrCL-13" value="未登录，弹出登录界面" style="html=1;verticalAlign=bottom;endArrow=open;dashed=1;endSize=8;fontFamily=Helvetica;entryX=1;entryY=0.217;entryDx=0;entryDy=0;entryPerimeter=0;" parent="1" edge="1">
                    <mxGeometry relative="1" as="geometry">
                        <mxPoint x="350" y="220" as="sourcePoint"/>
                        <mxPoint x="190" y="219.90999999999997" as="targetPoint"/>
                        <Array as="points"/>
                    </mxGeometry>
                </mxCell>
                <mxCell id="phBigF0GXQfGeEcBGrCL-14" value="已登录，获取关注用户列表" style="verticalAlign=bottom;endArrow=block;shadow=0;strokeWidth=1;entryX=0.22;entryY=0.005;entryDx=0;entryDy=0;entryPerimeter=0;" parent="1" target="phBigF0GXQfGeEcBGrCL-4" edge="1">
                    <mxGeometry relative="1" as="geometry">
                        <mxPoint x="368" y="250" as="sourcePoint"/>
                        <mxPoint x="590" y="250" as="targetPoint"/>
                        <Array as="points"/>
                    </mxGeometry>
                </mxCell>
            </root>
        </mxGraphModel>
    </diagram>
</mxfile>